<?xml version="1.0" encoding="UTF-8" standalone="no"?>
<svg
   enable-background="new 0 0 32 32"
   height="32px"
   viewBox="0 0 32 32"
   width="32px"
   fill="#FFFFFF"
   version="1.1"
   id="svg3"
   sodipodi:docname="insights.svg"
   inkscape:version="1.4 (e7c3feb100, 2024-10-09)"
   xmlns:inkscape="http://www.inkscape.org/namespaces/inkscape"
   xmlns:sodipodi="http://sodipodi.sourceforge.net/DTD/sodipodi-0.dtd"
   xmlns="http://www.w3.org/2000/svg"
   xmlns:svg="http://www.w3.org/2000/svg">
  <defs
     id="defs3" />
  <sodipodi:namedview
     id="namedview3"
     pagecolor="#ffffff"
     bordercolor="#000000"
     borderopacity="0.25"
     inkscape:showpageshadow="2"
     inkscape:pageopacity="0.0"
     inkscape:pagecheckerboard="0"
     inkscape:deskcolor="#d1d1d1"
     inkscape:zoom="10.639747"
     inkscape:cx="-5.4042637"
     inkscape:cy="-3.7124942"
     inkscape:window-width="1920"
     inkscape:window-height="1172"
     inkscape:window-x="0"
     inkscape:window-y="0"
     inkscape:window-maximized="1"
     inkscape:current-layer="svg3" />
  <g
     id="g1">
    <rect
       x="0"
       y="0"
       width="32"
       height="32"
       rx="4"
       ry="4"
       fill="#1565c0"
       id="rect1" />
  </g>
  <g
     id="g3"
      transform="translate(7, 7) translate(-2, -2)">
    <g
       id="g2">
      <path
         d="M21,8c-1.45,0-2.26,1.44-1.93,2.51l-3.55,3.56c-0.3-0.09-0.74-0.09-1.04,0l-2.55-2.55C12.27,10.45,11.46,9,10,9 c-1.45,0-2.27,1.44-1.93,2.52l-4.56,4.55C2.44,15.74,1,16.55,1,18c0,1.1,0.9,2,2,2c1.45,0,2.26-1.44,1.93-2.51l4.55-4.56 c0.3,0.09,0.74,0.09,1.04,0l2.55,2.55C12.73,16.55,13.54,18,15,18c1.45,0,2.27-1.44,1.93-2.52l3.56-3.55 C21.56,12.26,23,11.45,23,10C23,8.9,22.1,8,21,8z"
         id="path1" />
      <polygon
         points="15,9 15.94,6.93 18,6 15.94,5.07 15,3 14.08,5.07 12,6 14.08,6.93"
         id="polygon1" />
      <polygon
         points="3.5,11 4,9 6,8.5 4,8 3.5,6 3,8 1,8.5 3,9"
         id="polygon2" />
    </g>
  </g>
</svg>
